<svg data-v-423bf9ae="" xmlns="http://www.w3.org/2000/svg" viewBox="0 0 419.6657676861655 60" class="font"><!----><!----><!----><g data-v-423bf9ae="" id="aaf7eb91-24b5-4c5b-a1c6-1d14bb11eab4" fill="black" transform="matrix(5.571030897189742,0,0,5.571030897189742,-1.9498574980146373,-36.88022342500504)"><path d="M0.74 14.57Q2.14 15.02 3.58 15.02L3.58 15.02Q4.30 15.02 4.72 14.95L4.72 14.95L4.72 14.18L3.46 14.07Q2.37 13.97 1.72 13.67Q1.06 13.37 0.77 12.81Q0.48 12.25 0.48 11.35L0.48 11.35Q0.48 10.18 0.81 9.50Q1.15 8.82 1.90 8.52Q2.65 8.22 3.96 8.22L3.96 8.22Q5.68 8.22 7.25 8.64L7.25 8.64L6.90 10.88Q6.17 10.72 5.67 10.66Q5.17 10.60 4.63 10.60L4.63 10.60Q3.92 10.60 3.49 10.67L3.49 10.67L3.49 11.42L4.49 11.52Q6.20 11.69 6.96 12.37Q7.73 13.05 7.73 14.39L7.73 14.39Q7.73 15.95 6.83 16.67Q5.94 17.39 4.00 17.39L4.00 17.39Q2.02 17.39 0.35 16.88L0.35 16.88L0.74 14.57ZM12.21 17.39Q10.30 17.39 9.40 16.48Q8.50 15.58 8.50 13.68L8.50 13.68Q8.50 11.76 9.39 10.86Q10.29 9.97 12.21 9.97L12.21 9.97Q14.13 9.97 15.02 10.86Q15.92 11.76 15.92 13.68L15.92 13.68Q15.92 15.60 15.02 16.49Q14.13 17.39 12.21 17.39L12.21 17.39ZM11.51 15.29L12.36 15.29Q12.67 15.29 12.79 15.20Q12.91 15.12 12.91 14.90L12.91 14.90L12.91 12.07L12.05 12.07Q11.75 12.07 11.63 12.15Q11.51 12.24 11.51 12.46L11.51 12.46L11.51 15.29ZM17.04 17.18L17.04 10.18L18.44 10.18L19.14 10.88Q20.37 9.97 21.94 9.97L21.94 9.97Q22.92 9.97 23.48 10.39Q24.04 10.82 24.04 11.58L24.04 11.58L24.04 17.18L21.24 17.18L21.24 12.28L20.38 12.28Q20.09 12.28 19.96 12.37Q19.84 12.46 19.84 12.67L19.84 12.67L19.84 17.18L17.04 17.18ZM25.28 17.18L25.28 17.18ZM25.37 10.53L28.17 10.18L28.17 17.18L25.37 17.18L25.37 10.53ZM26.77 9.59Q26.18 9.59 25.86 9.46Q25.55 9.34 25.42 9.02Q25.28 8.71 25.28 8.12L25.28 8.12Q25.28 7.27 25.60 6.94Q25.91 6.62 26.77 6.62L26.77 6.62Q27.61 6.62 27.92 6.94Q28.24 7.27 28.24 8.12L28.24 8.12Q28.24 8.69 28.11 9.01Q27.97 9.32 27.66 9.46Q27.36 9.59 26.77 9.59L26.77 9.59ZM32.48 17.39Q30.83 17.39 30.06 16.49Q29.29 15.60 29.29 13.68L29.29 13.68Q29.29 11.76 30.06 10.86Q30.83 9.97 32.48 9.97L32.48 9.97Q33.10 9.97 33.82 10.06Q34.55 10.15 34.87 10.26L34.87 10.26L34.64 12.19Q34.03 12.01 33.25 12.01L33.25 12.01Q32.73 12.01 32.52 12.24Q32.30 12.47 32.30 13.03L32.30 13.03L32.30 15.29Q32.52 15.34 33.01 15.34L33.01 15.34Q33.99 15.34 34.78 14.98L34.78 14.98L35.01 16.91Q33.85 17.39 32.48 17.39L32.48 17.39ZM38.65 14.10L38.65 17.18L35.85 17.18L35.85 8.43L41.59 8.43L41.24 10.74L38.65 10.74L38.65 12.07L41.03 12.07L41.03 14.10L38.65 14.10ZM42.35 17.18L42.35 17.18ZM42.43 10.53L45.23 10.18L45.23 17.18L42.43 17.18L42.43 10.53ZM43.83 9.59Q43.25 9.59 42.93 9.46Q42.62 9.34 42.48 9.02Q42.35 8.71 42.35 8.12L42.35 8.12Q42.35 7.27 42.66 6.94Q42.98 6.62 43.83 6.62L43.83 6.62Q44.67 6.62 44.99 6.94Q45.30 7.27 45.30 8.12L45.30 8.12Q45.30 8.69 45.17 9.01Q45.04 9.32 44.73 9.46Q44.42 9.59 43.83 9.59L43.83 9.59ZM46.63 17.18L46.63 10.18L48.03 10.18L48.73 10.88Q49.97 9.97 51.53 9.97L51.53 9.97Q52.51 9.97 53.07 10.39Q53.63 10.82 53.63 11.58L53.63 11.58L53.63 17.18L50.83 17.18L50.83 12.28L49.98 12.28Q49.69 12.28 49.56 12.37Q49.43 12.46 49.43 12.67L49.43 12.67L49.43 17.18L46.63 17.18ZM59.09 8.08L61.89 7.87L61.89 17.18L60.49 17.18L59.98 16.48Q59.25 17.39 57.69 17.39L57.69 17.39Q56.13 17.39 55.40 16.50Q54.68 15.61 54.68 13.68L54.68 13.68Q54.68 11.75 55.40 10.86Q56.13 9.97 57.69 9.97L57.69 9.97Q58.49 9.97 59.09 10.21L59.09 10.21L59.09 8.08ZM58.55 15.29Q58.86 15.29 58.97 15.20Q59.09 15.12 59.09 14.90L59.09 14.90L59.09 12.07L58.24 12.07Q57.93 12.07 57.81 12.15Q57.69 12.24 57.69 12.46L57.69 12.46L57.69 15.29L58.55 15.29ZM67.00 15.34Q68.17 15.34 69.50 14.98L69.50 14.98L69.83 16.91Q68.39 17.39 66.72 17.39L66.72 17.39Q64.82 17.39 63.92 16.48Q63.01 15.58 63.01 13.68L63.01 13.68Q63.01 11.76 63.91 10.86Q64.81 9.97 66.72 9.97L66.72 9.97Q68.01 9.97 68.71 10.19Q69.41 10.40 69.71 10.91Q70.01 11.42 70.01 12.35L70.01 12.35Q70.01 13.20 69.62 13.71Q69.23 14.21 68.37 14.43Q67.51 14.66 66.02 14.66L66.02 14.66L66.02 15.29Q66.32 15.34 67.00 15.34L67.00 15.34ZM66.99 12.00Q66.44 12.00 66.23 12.11Q66.02 12.22 66.02 12.53L66.02 12.53L66.02 13.26L66.53 13.26Q67.07 13.26 67.28 13.13Q67.49 13.01 67.49 12.67L67.49 12.67L67.49 12.00L66.99 12.00ZM72.67 10.18L73.44 11.10Q74.27 10.23 75.52 9.97L75.52 9.97L75.68 12.68Q75.36 12.71 74.83 12.90Q74.30 13.09 74.07 13.24L74.07 13.24L74.07 17.18L71.27 17.18L71.27 10.18L72.67 10.18Z"></path></g><!----><!----></svg>